<svg xmlns="http://www.w3.org/2000/svg" xmlns:xlink="http://www.w3.org/1999/xlink" preserveAspectRatio="xMidYMid meet" viewBox="0 0 640 640" width="640" height="640"><defs><path d="M310.11 159.01C310.11 237.25 246.59 300.77 168.35 300.77C90.11 300.77 26.59 237.25 26.59 159.01C26.59 80.77 90.11 17.25 168.35 17.25C246.59 17.25 310.11 80.77 310.11 159.01Z" id="b36mzG58NS"></path><path d="M607.91 124.95C607.91 181.35 562.12 227.14 505.71 227.14C449.31 227.14 403.52 181.35 403.52 124.95C403.52 68.54 449.31 22.75 505.71 22.75C562.12 22.75 607.91 68.54 607.91 124.95Z" id="a2uy5CTDeT"></path><path d="M178.24 456.81C178.24 495.63 146.73 527.14 107.91 527.14C69.1 527.14 37.58 495.63 37.58 456.81C37.58 418 69.1 386.48 107.91 386.48C146.73 386.48 178.24 418 178.24 456.81Z" id="b93Ki5Iy5"></path><path d="M623.3 452.97C623.3 550.31 544.27 629.34 446.92 629.34C349.58 629.34 270.55 550.31 270.55 452.97C270.55 355.62 349.58 276.59 446.92 276.59C544.27 276.59 623.3 355.62 623.3 452.97Z" id="b6rtwoDF2c"></path></defs><g><g><g><use xlink:href="#b36mzG58NS" opacity="1" fill="#00a5f8" fill-opacity="1"></use></g><g><use xlink:href="#a2uy5CTDeT" opacity="1" fill="#f85e60" fill-opacity="1"></use></g><g><use xlink:href="#b93Ki5Iy5" opacity="1" fill="#9d66f0" fill-opacity="1"></use></g><g><use xlink:href="#b6rtwoDF2c" opacity="1" fill="#93c925" fill-opacity="1"></use></g></g></g></svg>